<svg xmlns="http://www.w3.org/2000/svg" width="20" height="15" viewBox="0 0 20 15" fill="none">
<path fill-rule="evenodd" clip-rule="evenodd" d="M7.5011 13.125C7.5011 13.2908 7.56695 13.4497 7.68416 13.5669C7.80137 13.6842 7.96034 13.75 8.1261 13.75H18.1261C18.2919 13.75 18.4508 13.6842 18.568 13.5669C18.6853 13.4497 18.7511 13.2908 18.7511 13.125V1.875C18.7511 1.70924 18.6853 1.55027 18.568 1.43306C18.4508 1.31585 18.2919 1.25 18.1261 1.25H8.1261C7.96034 1.25 7.80137 1.31585 7.68416 1.43306C7.56695 1.55027 7.5011 1.70924 7.5011 1.875V4.375C7.5011 4.54076 7.43525 4.69973 7.31804 4.81694C7.20083 4.93415 7.04186 5 6.8761 5C6.71034 5 6.55137 4.93415 6.43416 4.81694C6.31695 4.69973 6.2511 4.54076 6.2511 4.375V1.875C6.2511 1.37772 6.44864 0.900806 6.80027 0.549175C7.1519 0.197544 7.62882 0 8.1261 0H18.1261C18.6234 0 19.1003 0.197544 19.4519 0.549175C19.8036 0.900806 20.0011 1.37772 20.0011 1.875V13.125C20.0011 13.6223 19.8036 14.0992 19.4519 14.4508C19.1003 14.8025 18.6234 15 18.1261 15H8.1261C7.62882 15 7.1519 14.8025 6.80027 14.4508C6.44864 14.0992 6.2511 13.6223 6.2511 13.125V10.625C6.2511 10.4592 6.31695 10.3003 6.43416 10.1831C6.55137 10.0658 6.71034 10 6.8761 10C7.04186 10 7.20083 10.0658 7.31804 10.1831C7.43525 10.3003 7.5011 10.4592 7.5011 10.625V13.125Z" fill="black"/>
<path fill-rule="evenodd" clip-rule="evenodd" d="M0.183617 7.94256C0.125413 7.8845 0.0792346 7.81553 0.0477266 7.7396C0.0162185 7.66367 0 7.58227 0 7.50006C0 7.41785 0.0162185 7.33645 0.0477266 7.26052C0.0792346 7.18458 0.125413 7.11561 0.183617 7.05756L3.93362 3.30756C3.99173 3.24945 4.06071 3.20335 4.13664 3.1719C4.21256 3.14045 4.29394 3.12427 4.37612 3.12427C4.4583 3.12427 4.53967 3.14045 4.6156 3.1719C4.69152 3.20335 4.76051 3.24945 4.81862 3.30756C4.87673 3.36567 4.92282 3.43465 4.95427 3.51058C4.98572 3.5865 5.00191 3.66788 5.00191 3.75006C5.00191 3.83224 4.98572 3.91361 4.95427 3.98954C4.92282 4.06546 4.87673 4.13445 4.81862 4.19256L2.13487 6.87506H13.1261C13.2919 6.87506 13.4508 6.94091 13.5681 7.05812C13.6853 7.17533 13.7511 7.3343 13.7511 7.50006C13.7511 7.66582 13.6853 7.82479 13.5681 7.942C13.4508 8.05921 13.2919 8.12506 13.1261 8.12506H2.13487L4.81862 10.8076C4.87673 10.8657 4.92282 10.9347 4.95427 11.0106C4.98572 11.0865 5.00191 11.1679 5.00191 11.2501C5.00191 11.3322 4.98572 11.4136 4.95427 11.4895C4.92282 11.5655 4.87673 11.6344 4.81862 11.6926C4.76051 11.7507 4.69152 11.7968 4.6156 11.8282C4.53967 11.8597 4.4583 11.8758 4.37612 11.8758C4.29394 11.8758 4.21256 11.8597 4.13664 11.8282C4.06071 11.7968 3.99173 11.7507 3.93362 11.6926L0.183617 7.94256Z" fill="black"/>
</svg>