<svg width="12" height="18" viewBox="0 0 12 18" fill="none" xmlns="http://www.w3.org/2000/svg">
<path d="M5.625 1.125C6.22174 1.125 6.79403 1.36205 7.21599 1.78401C7.63795 2.20597 7.875 2.77826 7.875 3.375V7.875H3.375V3.375C3.375 2.77826 3.61205 2.20597 4.03401 1.78401C4.45597 1.36205 5.02826 1.125 5.625 1.125ZM9 7.875V3.375C9 2.47989 8.64442 1.62145 8.01149 0.988515C7.37855 0.355579 6.52011 0 5.625 0C4.72989 0 3.87145 0.355579 3.23851 0.988515C2.60558 1.62145 2.25 2.47989 2.25 3.375V7.875C1.65326 7.875 1.08097 8.11205 0.65901 8.53401C0.237053 8.95597 0 9.52826 0 10.125V15.75C0 16.3467 0.237053 16.919 0.65901 17.341C1.08097 17.7629 1.65326 18 2.25 18H9C9.59674 18 10.169 17.7629 10.591 17.341C11.0129 16.919 11.25 16.3467 11.25 15.75V10.125C11.25 9.52826 11.0129 8.95597 10.591 8.53401C10.169 8.11205 9.59674 7.875 9 7.875Z" fill="black"/>
</svg>
