<svg xmlns="http://www.w3.org/2000/svg" width="20" height="20" viewBox="0 0 20 20" fill="none">
<path d="M15 20C16.3261 20 17.5978 19.4732 18.5355 18.5355C19.4732 17.5979 20 16.3261 20 15C20 13.6739 19.4732 12.4021 18.5355 11.4645C17.5978 10.5268 16.3261 10 15 10C13.6739 10 12.4021 10.5268 11.4645 11.4645C10.5268 12.4021 9.99999 13.6739 9.99999 15C9.99999 16.3261 10.5268 17.5979 11.4645 18.5355C12.4021 19.4732 13.6739 20 15 20ZM15.7143 12.8571V14.2857H17.1428C17.3323 14.2857 17.514 14.361 17.6479 14.4949C17.7819 14.6289 17.8571 14.8106 17.8571 15C17.8571 15.1894 17.7819 15.3711 17.6479 15.5051C17.514 15.639 17.3323 15.7143 17.1428 15.7143H15.7143V17.1429C15.7143 17.3323 15.639 17.514 15.5051 17.6479C15.3711 17.7819 15.1894 17.8571 15 17.8571C14.8106 17.8571 14.6289 17.7819 14.4949 17.6479C14.361 17.514 14.2857 17.3323 14.2857 17.1429V15.7143H12.8571C12.6677 15.7143 12.486 15.639 12.3521 15.5051C12.2181 15.3711 12.1428 15.1894 12.1428 15C12.1428 14.8106 12.2181 14.6289 12.3521 14.4949C12.486 14.361 12.6677 14.2857 12.8571 14.2857H14.2857V12.8571C14.2857 12.6677 14.361 12.486 14.4949 12.3521C14.6289 12.2181 14.8106 12.1429 15 12.1429C15.1894 12.1429 15.3711 12.2181 15.5051 12.3521C15.639 12.486 15.7143 12.6677 15.7143 12.8571ZM12.8571 4.28571C12.8571 5.42236 12.4056 6.51244 11.6019 7.31617C10.7982 8.1199 9.70806 8.57143 8.57142 8.57143C7.43478 8.57143 6.34469 8.1199 5.54096 7.31617C4.73724 6.51244 4.28571 5.42236 4.28571 4.28571C4.28571 3.14907 4.73724 2.05898 5.54096 1.25526C6.34469 0.451529 7.43478 0 8.57142 0C9.70806 0 10.7982 0.451529 11.6019 1.25526C12.4056 2.05898 12.8571 3.14907 12.8571 4.28571ZM8.57142 7.14286C9.32918 7.14286 10.0559 6.84184 10.5917 6.30602C11.1275 5.7702 11.4286 5.04348 11.4286 4.28571C11.4286 3.52795 11.1275 2.80123 10.5917 2.26541C10.0559 1.72959 9.32918 1.42857 8.57142 1.42857C7.81366 1.42857 7.08693 1.72959 6.55111 2.26541C6.0153 2.80123 5.71428 3.52795 5.71428 4.28571C5.71428 5.04348 6.0153 5.7702 6.55111 6.30602C7.08693 6.84184 7.81366 7.14286 8.57142 7.14286Z" fill="#666666"/>
<path d="M8.93714 17.1429C8.77325 16.6789 8.66348 16.1977 8.61 15.7086H1.42857C1.43 15.3571 1.64857 14.3 2.61714 13.3314C3.54857 12.4 5.30143 11.4286 8.57143 11.4286C8.94286 11.4286 9.29571 11.4414 9.62857 11.4643C9.95143 10.9771 10.3371 10.5357 10.7771 10.1529C10.11 10.0543 9.37714 10 8.57143 10C1.42857 10 0 14.2857 0 15.7143C0 17.1429 1.42857 17.1429 1.42857 17.1429H8.93714Z" fill="#666666"/>
</svg>