<svg xmlns="http://www.w3.org/2000/svg" width="20" height="18" viewBox="0 0 20 18" fill="none">
<path d="M2.07692 18C1.52609 18 0.997815 17.7812 0.608317 17.3917C0.218818 17.0022 0 16.4739 0 15.9231V2.07692C0 1.52609 0.218818 0.997815 0.608317 0.608317C0.997815 0.218818 1.52609 0 2.07692 0H13.1538C13.3375 0 13.5135 0.0729393 13.6434 0.202772C13.7732 0.332605 13.8462 0.508696 13.8462 0.692308C13.8462 0.875919 13.7732 1.05201 13.6434 1.18184C13.5135 1.31168 13.3375 1.38462 13.1538 1.38462H2.07692C1.89331 1.38462 1.71722 1.45755 1.58739 1.58739C1.45755 1.71722 1.38462 1.89331 1.38462 2.07692V15.9231C1.38462 16.1067 1.45755 16.2828 1.58739 16.4126C1.71722 16.5424 1.89331 16.6154 2.07692 16.6154H15.9231C16.1067 16.6154 16.2828 16.5424 16.4126 16.4126C16.5424 16.2828 16.6154 16.1067 16.6154 15.9231V9C16.6154 8.81639 16.6883 8.6403 16.8182 8.51046C16.948 8.38063 17.1241 8.30769 17.3077 8.30769C17.4913 8.30769 17.6674 8.38063 17.7972 8.51046C17.9271 8.6403 18 8.81639 18 9V15.9231C18 16.4739 17.7812 17.0022 17.3917 17.3917C17.0022 17.7812 16.4739 18 15.9231 18H2.07692Z" fill="#666666"/>
<path d="M9.49014 12.2594L19.1824 2.56713C19.2468 2.50276 19.2979 2.42634 19.3327 2.34224C19.3675 2.25814 19.3855 2.168 19.3855 2.07697C19.3855 1.98594 19.3675 1.8958 19.3327 1.8117C19.2979 1.7276 19.2468 1.65119 19.1824 1.58682C19.1181 1.52245 19.0417 1.47139 18.9576 1.43655C18.8735 1.40172 18.7833 1.38379 18.6923 1.38379C18.6013 1.38379 18.5111 1.40172 18.427 1.43655C18.3429 1.47139 18.2665 1.52245 18.2021 1.58682L8.99998 10.7904L5.33629 7.12528C5.27192 7.06091 5.19551 7.00985 5.11141 6.97502C5.02731 6.94018 4.93717 6.92225 4.84614 6.92225C4.75511 6.92225 4.66497 6.94018 4.58087 6.97502C4.49677 7.00985 4.42035 7.06091 4.35598 7.12528C4.29161 7.18965 4.24056 7.26606 4.20572 7.35016C4.17088 7.43426 4.15295 7.5244 4.15295 7.61543C4.15295 7.70646 4.17088 7.7966 4.20572 7.8807C4.24056 7.9648 4.29161 8.04122 4.35598 8.10559L8.50983 12.2594C8.57414 12.3239 8.65053 12.3751 8.73464 12.41C8.81875 12.4449 8.90892 12.4628 8.99998 12.4628C9.09104 12.4628 9.18121 12.4449 9.26532 12.41C9.34943 12.3751 9.42583 12.3239 9.49014 12.2594Z" fill="#666666"/>
</svg>