<svg xmlns="http://www.w3.org/2000/svg" width="21" height="20" viewBox="0 0 21 20" fill="none">
<path d="M10.2819 1.30157C10.1319 1.24147 9.9646 1.24147 9.81465 1.30157L2.31864 4.29972L5.33815 5.50677L13.0678 2.41567L10.2819 1.30157ZM14.7584 3.09267L7.02877 6.18377L10.0483 7.39082L17.7779 4.29972L14.7584 3.09267ZM18.8405 5.22793L10.6763 8.49362V18.4439L18.8405 15.1782V5.22793ZM9.42026 18.4452V8.49236L1.25603 5.22793V15.1795L9.42026 18.4452ZM9.34866 0.13471C9.79778 -0.0449035 10.2988 -0.0449035 10.7479 0.13471L19.7022 3.71692C19.8186 3.76358 19.9184 3.84402 19.9886 3.94789C20.0589 4.05176 20.0965 4.1743 20.0965 4.29972V15.1795C20.0964 15.4305 20.021 15.6757 19.8802 15.8834C19.7394 16.0912 19.5396 16.252 19.3065 16.3451L10.2819 19.9549C10.1319 20.015 9.9646 20.015 9.81465 19.9549L0.791301 16.3451C0.557995 16.2522 0.357897 16.0914 0.216844 15.8837C0.0757913 15.6759 0.000259157 15.4306 0 15.1795L0 4.29972C2.91902e-05 4.1743 0.0376104 4.05176 0.107902 3.94789C0.178194 3.84402 0.277976 3.76358 0.394395 3.71692L9.34866 0.13471Z" fill="#666666"/>
</svg>
