<svg xmlns="http://www.w3.org/2000/svg" width="20" height="14" viewBox="0 0 20 14" fill="none">
<path d="M5 1.25C4.00544 1.25 3.05161 1.64509 2.34835 2.34835C1.64509 3.05161 1.25 4.00544 1.25 5V12.5H8.75V5C8.75 4.00544 8.35491 3.05161 7.65165 2.34835C6.94839 1.64509 5.99456 1.25 5 1.25ZM5 0H15C16.3261 0 17.5979 0.526784 18.5355 1.46447C19.4732 2.40215 20 3.67392 20 5V12.5C20 12.8315 19.8683 13.1495 19.6339 13.3839C19.3995 13.6183 19.0815 13.75 18.75 13.75H1.25C0.918479 13.75 0.600537 13.6183 0.366117 13.3839C0.131696 13.1495 0 12.8315 0 12.5V5C0 3.67392 0.526784 2.40215 1.46447 1.46447C2.40215 0.526784 3.67392 0 5 0ZM8.3075 1.25C8.8401 1.71872 9.26658 2.29568 9.55844 2.94235C9.8503 3.58902 10.0008 4.29052 10 5V12.5H18.75V5C18.75 4.00544 18.3549 3.05161 17.6517 2.34835C16.9484 1.64509 15.9946 1.25 15 1.25H8.3075Z" fill="#666666"/>
<path d="M14.7413 6.875H11.25V5.625H17.5C17.6658 5.625 17.8247 5.69085 17.9419 5.80806C18.0592 5.92527 18.125 6.08424 18.125 6.25V7.5C18.125 7.66576 18.0592 7.82473 17.9419 7.94194C17.8247 8.05915 17.6658 8.125 17.5 8.125H16.25C16.1679 8.12515 16.0865 8.1091 16.0106 8.07779C15.9347 8.04647 15.8656 8.0005 15.8075 7.9425L14.7413 6.875ZM6.25 5C6.25 5.69 5.69 5 5 5C4.31 5 3.75 5.69 3.75 5C3.75 4.66848 3.8817 4.35054 4.11612 4.11612C4.35054 3.8817 4.66848 3.75 5 3.75C5.33152 3.75 5.64946 3.8817 5.88388 4.11612C6.1183 4.35054 6.25 4.66848 6.25 5Z" fill="#666666"/>
</svg>