<svg xmlns="http://www.w3.org/2000/svg" width="25" height="25" viewBox="0 0 20 20" fill="none">
<path d="M2.5 12.5H6.25C6.58152 12.5 6.89946 12.6317 7.13388 12.8661C7.3683 13.1005 7.5 13.4185 7.5 13.75V17.5C7.5 17.8315 7.3683 18.1495 7.13388 18.3839C6.89946 18.6183 6.58152 18.75 6.25 18.75H2.5C2.16848 18.75 1.85054 18.6183 1.61612 18.3839C1.3817 18.1495 1.25 17.8315 1.25 17.5V13.75C1.25 13.4185 1.3817 13.1005 1.61612 12.8661C1.85054 12.6317 2.16848 12.5 2.5 12.5ZM13.75 1.25H17.5C17.8315 1.25 18.1495 1.3817 18.3839 1.61612C18.6183 1.85054 18.75 2.16848 18.75 2.5V6.25C18.75 6.58152 18.6183 6.89946 18.3839 7.13388C18.1495 7.3683 17.8315 7.5 17.5 7.5H13.75C13.4185 7.5 13.1005 7.3683 12.8661 7.13388C12.6317 6.89946 12.5 6.58152 12.5 6.25V2.5C12.5 2.16848 12.6317 1.85054 12.8661 1.61612C13.1005 1.3817 13.4185 1.25 13.75 1.25ZM13.75 12.5C13.4185 12.5 13.1005 12.6317 12.8661 12.8661C12.6317 13.1005 12.5 13.4185 12.5 13.75V17.5C12.5 17.8315 12.6317 18.1495 12.8661 18.3839C13.1005 18.6183 13.4185 18.75 13.75 18.75H17.5C17.8315 18.75 18.1495 18.6183 18.3839 18.3839C18.6183 18.1495 18.75 17.8315 18.75 17.5V13.75C18.75 13.4185 18.6183 13.1005 18.3839 12.8661C18.1495 12.6317 17.8315 12.5 17.5 12.5H13.75ZM13.75 0C13.087 0 12.4511 0.263392 11.9822 0.732233C11.5134 1.20107 11.25 1.83696 11.25 2.5V6.25C11.25 6.91304 11.5134 7.54893 11.9822 8.01777C12.4511 8.48661 13.087 8.75 13.75 8.75H17.5C18.163 8.75 18.7989 8.48661 19.2678 8.01777C19.7366 7.54893 20 6.91304 20 6.25V2.5C20 1.83696 19.7366 1.20107 19.2678 0.732233C18.7989 0.263392 18.163 0 17.5 0L13.75 0ZM2.5 11.25C1.83696 11.25 1.20107 11.5134 0.732233 11.9822C0.263392 12.4511 0 13.087 0 13.75L0 17.5C0 18.163 0.263392 18.7989 0.732233 19.2678C1.20107 19.7366 1.83696 20 2.5 20H6.25C6.91304 20 7.54893 19.7366 8.01777 19.2678C8.48661 18.7989 8.75 18.163 8.75 17.5V13.75C8.75 13.087 8.48661 12.4511 8.01777 11.9822C7.54893 11.5134 6.91304 11.25 6.25 11.25H2.5ZM11.25 13.75C11.25 13.087 11.5134 12.4511 11.9822 11.9822C12.4511 11.5134 13.087 11.25 13.75 11.25H17.5C18.163 11.25 18.7989 11.5134 19.2678 11.9822C19.7366 12.4511 20 13.087 20 13.75V17.5C20 18.163 19.7366 18.7989 19.2678 19.2678C18.7989 19.7366 18.163 20 17.5 20H13.75C13.087 20 12.4511 19.7366 11.9822 19.2678C11.5134 18.7989 11.25 18.163 11.25 17.5V13.75ZM0 2.5C0 1.83696 0.263392 1.20107 0.732233 0.732233C1.20107 0.263392 1.83696 0 2.5 0L6.25 0C6.91304 0 7.54893 0.263392 8.01777 0.732233C8.48661 1.20107 8.75 1.83696 8.75 2.5V6.25C8.75 6.91304 8.48661 7.54893 8.01777 8.01777C7.54893 8.48661 6.91304 8.75 6.25 8.75H2.5C1.83696 8.75 1.20107 8.48661 0.732233 8.01777C0.263392 7.54893 0 6.91304 0 6.25V2.5ZM6.6925 3.5675C6.75061 3.50939 6.79671 3.4404 6.82815 3.36448C6.8596 3.28855 6.87579 3.20718 6.87579 3.125C6.87579 3.04282 6.8596 2.96145 6.82815 2.88552C6.79671 2.8096 6.75061 2.74061 6.6925 2.6825C6.63439 2.62439 6.5654 2.57829 6.48948 2.54685C6.41356 2.5154 6.33218 2.49921 6.25 2.49921C6.16782 2.49921 6.08644 2.5154 6.01052 2.54685C5.9346 2.57829 5.86561 2.62439 5.8075 2.6825L3.75 4.74125L2.9425 3.9325C2.88439 3.87439 2.8154 3.82829 2.73948 3.79685C2.66355 3.7654 2.58218 3.74921 2.5 3.74921C2.41782 3.74921 2.33645 3.7654 2.26052 3.79685C2.1846 3.82829 2.11561 3.87439 2.0575 3.9325C1.99939 3.99061 1.95329 4.0596 1.92185 4.13552C1.8904 4.21144 1.87421 4.29282 1.87421 4.375C1.87421 4.45718 1.8904 4.53856 1.92185 4.61448C1.95329 4.6904 1.99939 4.75939 2.0575 4.8175L3.3075 6.0675C3.36556 6.1257 3.43453 6.17188 3.51046 6.20339C3.58639 6.2349 3.66779 6.25112 3.75 6.25112C3.83221 6.25112 3.91361 6.2349 3.98954 6.20339C4.06547 6.17188 4.13444 6.1257 4.1925 6.0675L6.6925 3.5675Z" fill="#007BFF"/>
</svg>