<svg xmlns="http://www.w3.org/2000/svg" width="20" height="20" viewBox="0 0 20 20" fill="none">
<path d="M15 20C16.3261 20 17.5978 19.4732 18.5355 18.5355C19.4732 17.5979 20 16.3261 20 15C20 13.6739 19.4732 12.4021 18.5355 11.4645C17.5978 10.5268 16.3261 10 15 10C13.6739 10 12.4021 10.5268 11.4645 11.4645C10.5268 12.4021 9.99999 13.6739 9.99999 15C9.99999 16.3261 10.5268 17.5979 11.4645 18.5355C12.4021 19.4732 13.6739 20 15 20ZM17.3986 13.5814L15.4914 16.7614C15.4076 16.9011 15.293 17.0199 15.1564 17.1087C15.0198 17.1974 14.8648 17.2539 14.7031 17.2737C14.5414 17.2936 14.3773 17.2763 14.2232 17.2231C14.0692 17.17 13.9294 17.0825 13.8143 16.9671L12.7086 15.8629C12.5744 15.7287 12.4991 15.5468 12.4991 15.3571C12.4991 15.1675 12.5744 14.9856 12.7086 14.8514C12.8427 14.7173 13.0246 14.642 13.2143 14.642C13.404 14.642 13.5859 14.7173 13.72 14.8514L14.5014 15.6343L16.1728 12.8471C16.2211 12.7667 16.2847 12.6965 16.36 12.6406C16.4353 12.5847 16.521 12.5441 16.612 12.5213C16.703 12.4985 16.7976 12.4938 16.8904 12.5076C16.9832 12.5213 17.0724 12.5532 17.1528 12.6014C17.2333 12.6496 17.3035 12.7132 17.3594 12.7886C17.4153 12.8639 17.4559 12.9495 17.4787 13.0405C17.5015 13.1315 17.5062 13.2261 17.4924 13.319C17.4787 13.4118 17.4468 13.5009 17.3986 13.5814ZM12.8571 4.28571C12.8571 5.42236 12.4056 6.51244 11.6019 7.31617C10.7982 8.1199 9.70806 8.57143 8.57142 8.57143C7.43478 8.57143 6.34469 8.1199 5.54096 7.31617C4.73724 6.51244 4.28571 5.42236 4.28571 4.28571C4.28571 3.14907 4.73724 2.05898 5.54096 1.25526C6.34469 0.451529 7.43478 0 8.57142 0C9.70806 0 10.7982 0.451529 11.6019 1.25526C12.4056 2.05898 12.8571 3.14907 12.8571 4.28571ZM8.57142 7.14286C9.32918 7.14286 10.0559 6.84184 10.5917 6.30602C11.1275 5.7702 11.4286 5.04348 11.4286 4.28571C11.4286 3.52795 11.1275 2.80123 10.5917 2.26541C10.0559 1.72959 9.32918 1.42857 8.57142 1.42857C7.81366 1.42857 7.08693 1.72959 6.55111 2.26541C6.0153 2.80123 5.71428 3.52795 5.71428 4.28571C5.71428 5.04348 6.0153 5.7702 6.55111 6.30602C7.08693 6.84184 7.81366 7.14286 8.57142 7.14286Z" fill="#666666"/>
<path d="M8.93714 17.1429C8.77325 16.6789 8.66348 16.1977 8.61 15.7086H1.42857C1.43 15.3571 1.64857 14.3 2.61714 13.3314C3.54857 12.4 5.30143 11.4286 8.57143 11.4286C8.94286 11.4286 9.29571 11.4414 9.62857 11.4643C9.95143 10.9771 10.3371 10.5357 10.7771 10.1529C10.11 10.0543 9.37714 10 8.57143 10C1.42857 10 0 14.2857 0 15.7143C0 17.1429 1.42857 17.1429 1.42857 17.1429H8.93714Z" fill="#666666"/>
</svg>