<svg xmlns="http://www.w3.org/2000/svg" width="20" height="16" viewBox="0 0 20 16" fill="none">
  <path d="M18.125 1.75C18.2908 1.75 18.4497 1.81585 18.5669 1.93306C18.6842 2.05027 18.75 2.20924 18.75 2.375V13.625C18.75 13.7908 18.6842 13.9497 18.5669 14.0669C18.4497 14.1842 18.2908 14.25 18.125 14.25H1.875C1.70924 14.25 1.55027 14.1842 1.43306 14.0669C1.31585 13.9497 1.25 13.7908 1.25 13.625V2.375C1.25 2.20924 1.31585 2.05027 1.43306 1.93306C1.55027 1.81585 1.70924 1.75 1.875 1.75H18.125ZM1.875 0.5C1.37772 0.5 0.900805 0.697544 0.549175 1.04917C0.197544 1.40081 0 1.87772 0 2.375L0 13.625C0 14.1223 0.197544 14.5992 0.549175 14.9508C0.900805 15.3025 1.37772 15.5 1.875 15.5H18.125C18.6223 15.5 19.0992 15.3025 19.4508 14.9508C19.8025 14.5992 20 14.1223 20 13.625V2.375C20 1.87772 19.8025 1.40081 19.4508 1.04917C19.0992 0.697544 18.6223 0.5 18.125 0.5H1.875Z" fill="#666666"/>
  
  <svg xmlns="http://www.w3.org/2000/svg" width="14" height="9" viewBox="0 0 14 9" fill="none" x="3.5" y="3.5">
    <path d="M5.75 1.8749C5.75 1.70914 5.81584 1.55016 5.93305 1.43295C6.05026 1.31574 6.20924 1.2499 6.375 1.2499H12.625C12.7908 1.2499 12.9497 1.31574 13.0669 1.43295C13.1841 1.55016 13.25 1.70914 13.25 1.8749C13.25 2.04066 13.1841 2.19963 13.0669 2.31684C12.9497 2.43405 12.7908 2.4999 12.625 2.4999H6.375C6.20924 2.4999 6.05026 2.43405 5.93305 2.31684C5.81584 2.19963 5.75 2.04066 5.75 1.8749ZM3.88 0.807396C3.9382 0.865453 3.98438 0.934423 4.01589 1.01035C4.04739 1.08629 4.06361 1.16769 4.06361 1.2499C4.06361 1.33211 4.04739 1.41351 4.01589 1.48944C3.98438 1.56537 3.9382 1.63434 3.88 1.6924L2.005 3.5674C1.94694 3.6256 1.87797 3.67178 1.80204 3.70329C1.72611 3.7348 1.64471 3.75101 1.5625 3.75101C1.48029 3.75101 1.39889 3.7348 1.32295 3.70329C1.24702 3.67178 1.17805 3.6256 1.12 3.5674L0.494996 2.9424C0.436886 2.88429 0.390791 2.8153 0.359342 2.73938C0.327893 2.66345 0.311707 2.58208 0.311707 2.4999C0.311707 2.33393 0.377638 2.17475 0.494996 2.0574C0.612354 1.94004 0.771527 1.87411 0.937496 1.87411C1.10347 1.87411 1.26264 1.94004 1.38 2.0574L1.5625 2.24115L2.995 0.807396C3.05305 0.749192 3.12202 0.703013 3.19795 0.671505C3.27389 0.639997 3.35529 0.623779 3.4375 0.623779C3.51971 0.623779 3.60111 0.639997 3.67704 0.671505C3.75297 0.703013 3.82194 0.749192 3.88 0.807396ZM5.75 6.8749C5.75 6.70914 5.81584 6.55016 5.93305 6.43295C6.05026 6.31574 6.20924 6.2499 6.375 6.2499H12.625C12.7908 6.2499 12.9497 6.31574 13.0669 6.43295C13.1841 6.55016 13.25 6.70914 13.25 6.8749C13.25 7.04066 13.1841 7.19963 13.0669 7.31684C12.9497 7.43405 12.7908 7.4999 12.625 7.4999H6.375C6.20924 7.4999 6.05026 7.43405 5.93305 7.31684C5.81584 7.19963 5.75 7.04066 5.75 6.8749ZM3.88 5.8074C3.9382 5.86545 3.98438 5.93442 4.01589 6.01035C4.04739 6.08629 4.06361 6.16769 4.06361 6.2499C4.06361 6.3321 4.04739 6.41351 4.01589 6.48944C3.98438 6.56537 3.9382 6.63434 3.88 6.6924L2.005 8.5674C1.94694 8.6256 1.87797 8.67178 1.80204 8.70329C1.72611 8.73479 1.64471 8.75101 1.5625 8.75101C1.48029 8.75101 1.39889 8.73479 1.32295 8.70329C1.24702 8.67178 1.17805 8.6256 1.12 8.5674L0.494996 7.9424C0.436886 7.88429 0.390791 7.8153 0.359342 7.73938C0.327893 7.66345 0.311707 7.58208 0.311707 7.4999C0.311707 7.41772 0.327893 7.33634 0.359342 7.26042C0.390791 7.18449 0.436886 7.11551 0.494996 7.0574C0.553106 6.99929 0.622092 6.95319 0.698017 6.92174C0.773941 6.89029 0.855316 6.87411 0.937496 6.87411C1.01968 6.87411 1.10105 6.89029 1.17698 6.92174C1.2529 6.95319 1.32189 6.99929 1.38 7.0574L1.5625 7.24115L2.995 5.8074C3.05305 5.74919 3.12202 5.70301 3.19795 5.67151C3.27389 5.64 3.35529 5.62378 3.4375 5.62378C3.51971 5.62378 3.60111 5.64 3.67704 5.67151C3.75297 5.70301 3.82194 5.74919 3.88 5.8074Z" fill="#666666"/>
  </svg>
</svg>

