<svg width="59" height="65" viewBox="0 0 59 65" fill="none" xmlns="http://www.w3.org/2000/svg">
<path d="M0.110792 36.7802C0.110792 35.3628 0.0184654 33.9385 0.135413 32.5313C0.267748 30.9153 1.10792 29.6725 2.3051 28.7584C2.4563 28.6588 2.57977 28.5146 2.6618 28.3418C2.74383 28.1689 2.78122 27.9742 2.76981 27.7792C2.74951 23.9556 3.32963 20.1575 4.48401 16.5561C6.82296 9.49287 11.227 4.727 17.5421 2.12837C20.0067 1.14587 22.5734 0.515427 25.1806 0.252147C28.1819 -0.0951301 31.208 -0.0836521 34.2071 0.286385C38.9804 0.885542 43.4706 2.40227 47.3699 5.67196C51.2692 8.94164 53.7681 13.372 55.0884 18.6069C55.8267 21.5346 56.2035 24.5604 56.2086 27.6011C56.192 27.8481 56.2373 28.0953 56.3395 28.3153C56.4416 28.5353 56.5966 28.7195 56.7872 28.8474C57.4723 29.3621 58.0319 30.0578 58.416 30.8722C58.8 31.6867 58.9964 32.5943 58.9877 33.514C59.0123 35.7189 58.9877 37.9203 58.9877 40.1252C58.9536 41.5754 58.4311 42.9585 57.5236 44.0004C56.6162 45.0422 55.3901 45.6668 54.0882 45.7505C52.8849 45.7915 51.6815 45.7847 50.4782 45.7505C50.3268 45.7238 50.1719 45.761 50.0438 45.8547C49.9158 45.9484 49.8237 46.092 49.7858 46.2572C48.636 49.6921 46.9143 52.855 44.7109 55.5801C41.6702 59.3462 38.0664 62.1914 33.6809 63.7047C29.9878 64.9749 26.424 64.4784 22.9648 62.7392C17.7976 60.1405 13.8767 56.0012 11.0485 50.5711C10.3778 49.1847 9.77175 47.7608 9.23269 46.3051C9.19279 46.1322 9.09775 45.9813 8.96526 45.8805C8.83278 45.7797 8.67188 45.7359 8.51254 45.7573C7.30922 45.7881 6.10589 45.7813 4.90256 45.7573C2.34818 45.6888 0.0400083 43.0799 0 40.2416C0 39.0878 0 37.934 0 36.7802H0.110792ZM21.346 18.7986L21.2044 18.8295C21.1767 19.0725 21.1336 19.3122 21.1244 19.5553C21.0504 21.8575 20.4827 24.1066 19.4687 26.1152C17.6837 29.652 15.1324 32.0828 11.467 32.9114C11.3788 32.953 11.3011 33.0182 11.241 33.1012C11.1808 33.1842 11.1401 33.2825 11.1223 33.3873C11.03 36.2495 11.1039 39.1015 11.7686 41.8919C12.021 42.9567 12.1718 44.0728 13.0273 44.8226C13.5351 45.2677 14.006 45.771 14.5415 46.1682C17.4344 48.308 20.712 48.9722 24.0973 49.1982C24.1747 49.188 24.2494 49.1606 24.3171 49.1177C24.3848 49.0748 24.444 49.0171 24.4913 48.9483C26.2978 46.4934 30.3109 46.1887 32.6314 48.13C34.5395 49.7254 34.478 52.2145 32.5237 53.7347C31.2728 54.6815 29.7513 55.0802 28.252 54.8542C26.6886 54.6694 25.276 54.0668 24.3282 52.5364C24.2226 52.404 24.0768 52.3199 23.9188 52.3001C23.5003 52.2351 23.0756 52.2077 22.6509 52.17C20.2032 51.9718 17.8005 51.3347 15.5355 50.2835C15.4348 50.2428 15.3321 50.2085 15.2278 50.1808C15.227 50.2363 15.2332 50.2916 15.2463 50.3451C15.2836 50.4163 15.3247 50.4849 15.3694 50.5506C17.6182 54.0961 20.6479 56.9397 24.1681 58.8087C26.8948 60.2467 29.7077 60.8629 32.6807 59.7297C38.0972 57.6754 42.0888 53.7039 44.9324 48.2601C47.3945 43.5661 48.127 38.4373 47.8623 33.0791C47.7607 30.9941 47.6961 30.8879 46.0434 29.7855C42.9413 27.7312 39.5036 26.8787 35.9059 26.3617C36.6583 27.3609 37.2083 28.5286 37.5186 29.7855C36.9699 29.4133 36.3992 29.0828 35.8105 28.796C33.964 28.0599 32.1175 27.406 30.2709 26.6836C27.3257 25.5229 24.7559 23.7391 22.7986 20.9796C22.3031 20.2846 21.8261 19.5348 21.3368 18.8021L21.346 18.7986ZM53.0664 27.7312C53.0846 27.3766 53.0846 27.0211 53.0664 26.6664C52.8664 24.8758 52.7587 23.0646 52.4263 21.3014C51.0199 13.6288 47.1544 8.20554 40.47 5.44256C37.574 4.24425 34.5611 3.73068 31.4866 3.57662C27.1472 3.33353 22.8848 3.72384 18.7731 5.33985C13.9906 7.21265 10.3899 10.5885 8.20171 15.7481C6.8722 18.8671 6.24746 22.1745 6.00741 25.5914C5.95817 26.2967 5.93047 27.002 5.89046 27.7381C6.46904 27.7381 6.95222 27.7073 7.42924 27.7381C7.83856 27.7723 7.95243 27.5977 8.01398 27.1629C8.44297 23.9403 9.34326 20.8177 10.6792 17.9187C12.9904 13.0091 16.4773 9.60585 21.2075 7.87343C25.8731 6.19579 30.6341 6.07938 35.4166 7.18868C41.107 8.5034 45.4095 11.958 48.1977 17.6654C49.5994 20.6466 50.5488 23.8648 51.0076 27.1903C51.0383 27.3888 51.2353 27.6901 51.3769 27.7038C51.9216 27.7552 52.4786 27.7312 53.0664 27.7312Z" fill="black"/>
<path d="M37.1524 38.8276C36.5499 38.8262 35.9613 38.626 35.4612 38.2522C34.961 37.8784 34.5719 37.3478 34.343 36.7278C34.1141 36.1077 34.0558 35.4261 34.1755 34.7691C34.2951 34.1122 34.5873 33.5095 35.0151 33.0375C35.4429 32.5655 35.9869 32.2453 36.5784 32.1175C37.1699 31.9897 37.7821 32.0601 38.3376 32.3198C38.893 32.5794 39.3668 33.0166 39.6987 33.576C40.0306 34.1354 40.2059 34.7918 40.2022 35.4621C40.181 36.3519 39.8521 37.1984 39.284 37.8253C38.7159 38.4522 37.9524 38.8112 37.1524 38.8276Z" fill="black"/>
<path d="M21.8507 38.8276C21.2482 38.829 20.6589 38.6313 20.1574 38.2598C19.6559 37.8883 19.2648 37.3595 19.0337 36.7405C18.8026 36.1215 18.7418 35.4401 18.859 34.7826C18.9763 34.1251 19.2663 33.5212 19.6923 33.0472C20.1184 32.5732 20.6613 32.2506 21.2523 32.1202C21.8433 31.9897 22.4558 32.0573 23.0122 32.3145C23.5686 32.5716 24.0439 33.0067 24.3779 33.5646C24.7118 34.1225 24.8895 34.7781 24.8883 35.4484C24.8702 36.3383 24.5444 37.1862 23.9786 37.8157C23.4128 38.4451 22.6507 38.8076 21.8507 38.8276Z" fill="black"/>
</svg>
